<?xml version="1.0" encoding="utf-8"?><svg viewBox="0 0 50 50" xmlns="http://www.w3.org/2000/svg" xmlns:xlink="http://www.w3.org/1999/xlink"><style>:root>svg{display:none}:root>svg:target{display:block}</style><svg viewBox="0 0 35 47" fill="none" id="btc" xmlns="http://www.w3.org/2000/svg"><path d="M34.875 18.871c.716-4.79-2.931-7.366-7.919-9.084l1.618-6.49-3.95-.984-1.575 6.319a163.602 163.602 0 0 0-3.165-.745l1.586-6.36-3.948-.985-1.619 6.487c-.86-.195-1.703-.389-2.522-.592l.004-.02-5.447-1.361-1.051 4.22s2.93.67 2.869.712c1.6.4 1.889 1.459 1.84 2.298l-1.842 7.393c.11.028.253.069.41.132-.131-.033-.271-.069-.417-.104L7.164 30.064c-.196.486-.692 1.216-1.81.939.04.057-2.872-.717-2.872-.717L.521 34.808l5.14 1.282c.957.24 1.894.49 2.817.726L6.844 43.38l3.945.985 1.62-6.495c1.077.293 2.123.563 3.147.817l-1.613 6.464 3.95.984 1.635-6.551c6.737 1.275 11.802.76 13.934-5.332 1.717-4.906-.086-7.735-3.63-9.58 2.581-.596 4.526-2.294 5.044-5.8l-.001-.001zm-9.026 12.656c-1.221 4.906-9.48 2.254-12.158 1.59l2.169-8.697c2.678.668 11.265 1.991 9.989 7.107zM27.07 18.8c-1.113 4.462-7.988 2.195-10.218 1.64l1.967-7.888c2.23.556 9.412 1.594 8.252 6.248z" fill="#fff"/></svg><svg viewBox="0 0 50 50" fill="none" id="chain" xmlns="http://www.w3.org/2000/svg"><path fill-rule="evenodd" clip-rule="evenodd" d="M45.256 4.904c-5.692-5.872-14.947-5.872-20.639 0l-1.776 1.833a2 2 0 0 0 2.872 2.784l1.776-1.833c4.12-4.25 10.775-4.25 14.895 0 4.155 4.286 4.155 11.26 0 15.545l-4.236 4.37c-3.744 3.862-9.786 3.862-13.529 0l-.683-.704a2 2 0 0 0-2.872 2.784l.683.705a13.347 13.347 0 0 0 19.273 0l4.236-4.37c5.658-5.838 5.658-15.277 0-21.114zM11.852 22.396c3.743-3.861 9.786-3.861 13.529 0l.683.705a2 2 0 0 0 2.872-2.784l-.683-.705a13.347 13.347 0 0 0-19.273 0l-4.236 4.37c-5.659 5.838-5.659 15.277 0 21.114 5.692 5.872 14.947 5.872 20.639 0l1.776-1.833a2 2 0 1 0-2.872-2.784l-1.776 1.833c-4.12 4.25-10.775 4.25-14.895 0-4.155-4.286-4.155-11.26 0-15.545l4.236-4.37z" fill="#fff"/></svg><svg viewBox="0 0 16 16" fill="none" id="gift" xmlns="http://www.w3.org/2000/svg"><path fill-rule="evenodd" clip-rule="evenodd" d="M11.25 3a.917.917 0 0 0-.916-.917h-.054a.97.97 0 0 0-.93.692l-.342 1.142h1.326c.506 0 .916-.41.916-.917zm1.32.917A2.417 2.417 0 0 0 10.333.584h-.053A2.47 2.47 0 0 0 8 2.102 2.47 2.47 0 0 0 5.72.583h-.053A2.417 2.417 0 0 0 3.43 3.917H2.333a1.75 1.75 0 1 0 0 3.5h11.334a1.75 1.75 0 1 0 0-3.5H12.57zm-6.903 0h1.325L6.65 2.775a.97.97 0 0 0-.93-.692h-.053a.917.917 0 1 0 0 1.834zm-1.38 4H11.713c.382-.001.747-.002 1.065.11.56.195 1 .636 1.196 1.196.111.317.11.682.11 1.064v.244c0 1.051 0 1.77-.21 2.374a3.75 3.75 0 0 1-2.302 2.301c-.604.212-1.323.211-2.375.21H6.803c-1.052.001-1.771.002-2.375-.21a3.75 3.75 0 0 1-2.3-2.3c-.212-.604-.212-1.324-.211-2.376v-.243c-.001-.382-.002-.747.11-1.064.195-.56.636-1 1.196-1.197.317-.11.682-.11 1.064-.11z" fill="#43A1F7"/></svg><svg viewBox="0 0 42 43" fill="none" id="logo" xmlns="http://www.w3.org/2000/svg"><g clip-path="url(#da)"><path d="M10.5 37.367l5.25-2.625c1.969 1.312 3.61 1.968 5.25 1.968 1.64 0 3.281-.656 5.25-1.968l5.25 2.625-9.327 4.66c-.738.368-1.608.368-2.346 0l-9.327-4.66z" fill="#E7ECFE"/><path d="M36.75 8.491l-5.25 2.625-.016-.008c-6.645-3.486-14.422-3.486-20.984 0L5.25 8.491l14.577-7.284a2.623 2.623 0 0 1 2.346 0L36.75 8.491z" fill="#43A1F7"/><mask id="dc" style="mask-type:alpha" maskUnits="userSpaceOnUse" x="5" y="26" width="11" height="9"><path d="M15.75 29.475l-10.5 5.25v-5.25l5.25-2.625 5.25 2.625z" fill="url(#db)"/></mask><g mask="url(#dc)"><path d="M15.75 29.475l-10.5 5.25v-5.25l5.25-2.625 5.25 2.625z" fill="#E7ECFE"/></g><mask id="de" style="mask-type:alpha" maskUnits="userSpaceOnUse" x="26" y="26" width="11" height="9"><path d="M26.25 29.475l10.5 5.25v-5.25L31.5 26.85l-5.25 2.625z" fill="url(#dd)"/></mask><g mask="url(#de)"><path d="M26.25 29.475l10.5 5.25v-5.25L31.5 26.85l-5.25 2.625z" fill="#E7ECFE"/></g><path d="M42 11.117v21l-5.25 2.625V20.304L22.173 27.59c-.738.369-1.608.369-2.346 0L5.25 20.304v14.438L0 32.117v-21l19.827 9.91c.738.368 1.608.368 2.346 0L42 11.116z" fill="#E7ECFE"/></g><defs><linearGradient id="db" x1="5.25" y1="34.725" x2="10.5" y2="26.85" gradientUnits="userSpaceOnUse"><stop stop-color="#fff"/><stop offset=".067" stop-color="#fff" stop-opacity=".991"/><stop offset=".133" stop-color="#fff" stop-opacity=".964"/><stop offset=".2" stop-color="#fff" stop-opacity=".918"/><stop offset=".267" stop-color="#fff" stop-opacity=".853"/><stop offset=".333" stop-color="#fff" stop-opacity=".768"/><stop offset=".4" stop-color="#fff" stop-opacity=".668"/><stop offset=".467" stop-color="#fff" stop-opacity=".557"/><stop offset=".533" stop-color="#fff" stop-opacity=".443"/><stop offset=".6" stop-color="#fff" stop-opacity=".332"/><stop offset=".667" stop-color="#fff" stop-opacity=".232"/><stop offset=".733" stop-color="#fff" stop-opacity=".147"/><stop offset=".8" stop-color="#fff" stop-opacity=".082"/><stop offset=".867" stop-color="#fff" stop-opacity=".036"/><stop offset=".933" stop-color="#fff" stop-opacity=".01"/><stop offset="1" stop-color="#fff" stop-opacity="0"/></linearGradient><linearGradient id="dd" x1="36.75" y1="34.725" x2="31.5" y2="26.85" gradientUnits="userSpaceOnUse"><stop stop-color="#fff"/><stop offset=".067" stop-color="#fff" stop-opacity=".991"/><stop offset=".133" stop-color="#fff" stop-opacity=".964"/><stop offset=".2" stop-color="#fff" stop-opacity=".918"/><stop offset=".267" stop-color="#fff" stop-opacity=".853"/><stop offset=".333" stop-color="#fff" stop-opacity=".768"/><stop offset=".4" stop-color="#fff" stop-opacity=".668"/><stop offset=".467" stop-color="#fff" stop-opacity=".557"/><stop offset=".533" stop-color="#fff" stop-opacity=".443"/><stop offset=".6" stop-color="#fff" stop-opacity=".332"/><stop offset=".667" stop-color="#fff" stop-opacity=".232"/><stop offset=".733" stop-color="#fff" stop-opacity=".147"/><stop offset=".8" stop-color="#fff" stop-opacity=".082"/><stop offset=".867" stop-color="#fff" stop-opacity=".036"/><stop offset=".933" stop-color="#fff" stop-opacity=".01"/><stop offset="1" stop-color="#fff" stop-opacity="0"/></linearGradient><clipPath id="da"><path fill="#fff" transform="translate(0 .6)" d="M0 0h42v42H0z"/></clipPath></defs></svg></svg>