<svg width="42" height="43" viewBox="0 0 42 43" fill="none" xmlns="http://www.w3.org/2000/svg">
<g clip-path="url(#clip0_706_731)">
<path d="M10.5 37.3667L15.75 34.7417C17.7188 36.0542 19.3594 36.7104 21 36.7104C22.6406 36.7104 24.2812 36.0542 26.25 34.7417L31.5 37.3667L22.173 42.0261C21.4348 42.3952 20.5652 42.3952 19.827 42.0261L10.5 37.3667Z" fill="#E7ECFE"/>
<path d="M36.75 8.49141L31.5 11.1164L31.4836 11.1082C24.8391 7.62188 17.0625 7.62188 10.5 11.1082L5.25 8.49141L19.827 1.20703C20.5652 0.837891 21.4348 0.837891 22.173 1.20703L36.75 8.49141Z" fill="#43A1F7"/>
<mask id="mask0_706_731" style="mask-type:alpha" maskUnits="userSpaceOnUse" x="5" y="26" width="11" height="9">
<path d="M15.75 29.4751L5.25 34.7251V29.4751L10.5 26.8501L15.75 29.4751Z" fill="url(#paint0_linear_706_731)"/>
</mask>
<g mask="url(#mask0_706_731)">
<path d="M15.75 29.4751L5.25 34.7251V29.4751L10.5 26.8501L15.75 29.4751Z" fill="#E7ECFE"/>
</g>
<mask id="mask1_706_731" style="mask-type:alpha" maskUnits="userSpaceOnUse" x="26" y="26" width="11" height="9">
<path d="M26.25 29.4751L36.75 34.7251V29.4751L31.5 26.8501L26.25 29.4751Z" fill="url(#paint1_linear_706_731)"/>
</mask>
<g mask="url(#mask1_706_731)">
<path d="M26.25 29.4751L36.75 34.7251V29.4751L31.5 26.8501L26.25 29.4751Z" fill="#E7ECFE"/>
</g>
<path d="M42 11.1167V32.1167L36.75 34.7417V20.3042L22.173 27.5886C21.4348 27.9577 20.5652 27.9577 19.827 27.5886L5.25 20.3042V34.7417L0 32.1167V11.1167L19.827 21.0261C20.5652 21.3952 21.4348 21.3952 22.173 21.0261L42 11.1167Z" fill="#E7ECFE"/>
</g>
<defs>
<linearGradient id="paint0_linear_706_731" x1="5.25" y1="34.7251" x2="10.5" y2="26.8501" gradientUnits="userSpaceOnUse">
<stop stop-color="white"/>
<stop offset="0.0666667" stop-color="white" stop-opacity="0.991353"/>
<stop offset="0.133333" stop-color="white" stop-opacity="0.96449"/>
<stop offset="0.2" stop-color="white" stop-opacity="0.91834"/>
<stop offset="0.266667" stop-color="white" stop-opacity="0.852589"/>
<stop offset="0.333333" stop-color="white" stop-opacity="0.768225"/>
<stop offset="0.4" stop-color="white" stop-opacity="0.668116"/>
<stop offset="0.466667" stop-color="white" stop-opacity="0.557309"/>
<stop offset="0.533333" stop-color="white" stop-opacity="0.442691"/>
<stop offset="0.6" stop-color="white" stop-opacity="0.331884"/>
<stop offset="0.666667" stop-color="white" stop-opacity="0.231775"/>
<stop offset="0.733333" stop-color="white" stop-opacity="0.147411"/>
<stop offset="0.8" stop-color="white" stop-opacity="0.0816599"/>
<stop offset="0.866667" stop-color="white" stop-opacity="0.03551"/>
<stop offset="0.933333" stop-color="white" stop-opacity="0.01"/>
<stop offset="1" stop-color="white" stop-opacity="0"/>
</linearGradient>
<linearGradient id="paint1_linear_706_731" x1="36.75" y1="34.7251" x2="31.5" y2="26.8501" gradientUnits="userSpaceOnUse">
<stop stop-color="white"/>
<stop offset="0.0666667" stop-color="white" stop-opacity="0.991353"/>
<stop offset="0.133333" stop-color="white" stop-opacity="0.96449"/>
<stop offset="0.2" stop-color="white" stop-opacity="0.91834"/>
<stop offset="0.266667" stop-color="white" stop-opacity="0.852589"/>
<stop offset="0.333333" stop-color="white" stop-opacity="0.768225"/>
<stop offset="0.4" stop-color="white" stop-opacity="0.668116"/>
<stop offset="0.466667" stop-color="white" stop-opacity="0.557309"/>
<stop offset="0.533333" stop-color="white" stop-opacity="0.442691"/>
<stop offset="0.6" stop-color="white" stop-opacity="0.331884"/>
<stop offset="0.666667" stop-color="white" stop-opacity="0.231775"/>
<stop offset="0.733333" stop-color="white" stop-opacity="0.147411"/>
<stop offset="0.8" stop-color="white" stop-opacity="0.0816599"/>
<stop offset="0.866667" stop-color="white" stop-opacity="0.03551"/>
<stop offset="0.933333" stop-color="white" stop-opacity="0.01"/>
<stop offset="1" stop-color="white" stop-opacity="0"/>
</linearGradient>
<clipPath id="clip0_706_731">
<rect width="42" height="42" fill="white" transform="translate(0 0.600098)"/>
</clipPath>
</defs>
</svg>
