<svg width="580" height="512" viewBox="0 0 580 512" fill="none" xmlns="http://www.w3.org/2000/svg">
<path fill-rule="evenodd" clip-rule="evenodd" d="M288.901 190.902C286.441 190.039 284.015 191.399 281.287 194.005C278.525 196.643 275.165 200.843 270.754 206.357L270.711 206.411L237.678 247.702L237.633 247.758L237.633 247.758C234.286 251.942 231.72 255.149 230.204 257.737C228.687 260.328 228.079 262.535 229.067 264.591C230.055 266.646 232.158 267.55 235.129 267.984C238.097 268.417 242.204 268.417 247.562 268.417H247.562H247.634H257.334C260.183 268.417 262.245 268.418 263.817 268.63C265.368 268.838 266.33 269.238 267.046 269.954C267.762 270.67 268.162 271.632 268.371 273.183C268.582 274.755 268.584 276.817 268.584 279.667V297.624V297.694V297.694C268.584 304.755 268.584 310.133 269.092 313.919C269.594 317.658 270.639 320.235 273.099 321.098C275.56 321.961 277.985 320.601 280.713 317.995C283.475 315.357 286.835 311.157 291.246 305.643L291.29 305.589L324.322 264.298L324.367 264.242L324.367 264.242C327.715 260.058 330.28 256.851 331.796 254.263C333.314 251.672 333.921 249.465 332.934 247.409C331.946 245.354 329.843 244.45 326.871 244.016C323.904 243.583 319.796 243.583 314.438 243.583H314.438H314.366H304.667C301.817 243.583 299.756 243.582 298.183 243.37C296.632 243.162 295.671 242.762 294.955 242.046C294.238 241.33 293.838 240.368 293.63 238.817C293.418 237.245 293.417 235.183 293.417 232.333V214.376V214.306C293.417 207.246 293.417 201.867 292.908 198.081C292.406 194.342 291.362 191.765 288.901 190.902Z" fill="url(#paint0_linear_1_813)"/>
<circle cx="95" cy="256" r="31" stroke="url(#paint1_linear_1_813)" stroke-opacity="0.08" stroke-width="2"/>
<circle cx="95" cy="256" r="50" stroke="url(#paint2_linear_1_813)" stroke-opacity="0.12" stroke-width="4"/>
<circle cx="95" cy="256" r="70" stroke="url(#paint3_linear_1_813)" stroke-opacity="0.16" stroke-width="6"/>
<circle cx="281" cy="73" r="31" transform="rotate(90 281 73)" stroke="url(#paint4_linear_1_813)" stroke-opacity="0.08" stroke-width="2"/>
<circle cx="281" cy="73" r="50" transform="rotate(90 281 73)" stroke="url(#paint5_linear_1_813)" stroke-opacity="0.12" stroke-width="4"/>
<circle cx="281" cy="73" r="70" transform="rotate(90 281 73)" stroke="url(#paint6_linear_1_813)" stroke-opacity="0.16" stroke-width="6"/>
<circle cx="281" cy="439" r="31" transform="rotate(-90 281 439)" stroke="url(#paint7_linear_1_813)" stroke-opacity="0.08" stroke-width="2"/>
<circle cx="281" cy="439" r="50" transform="rotate(-90 281 439)" stroke="url(#paint8_linear_1_813)" stroke-opacity="0.12" stroke-width="4"/>
<circle cx="281" cy="439" r="70" transform="rotate(-90 281 439)" stroke="url(#paint9_linear_1_813)" stroke-opacity="0.16" stroke-width="6"/>
<circle r="31" transform="matrix(-1 0 0 1 464 256)" stroke="url(#paint10_linear_1_813)" stroke-opacity="0.08" stroke-width="2"/>
<circle r="50" transform="matrix(-1 0 0 1 464 256)" stroke="url(#paint11_linear_1_813)" stroke-opacity="0.12" stroke-width="4"/>
<circle r="70" transform="matrix(-1 0 0 1 464 256)" stroke="url(#paint12_linear_1_813)" stroke-opacity="0.16" stroke-width="6"/>
<defs>
<linearGradient id="paint0_linear_1_813" x1="281.589" y1="321.357" x2="345.967" y2="267.272" gradientUnits="userSpaceOnUse">
<stop stop-color="#FFC657"/>
<stop offset="1" stop-color="#FFD977"/>
</linearGradient>
<linearGradient id="paint1_linear_1_813" x1="127" y1="256" x2="63" y2="256" gradientUnits="userSpaceOnUse">
<stop stop-color="white"/>
<stop offset="0.621142" stop-color="white" stop-opacity="0"/>
</linearGradient>
<linearGradient id="paint2_linear_1_813" x1="147" y1="256" x2="43" y2="256" gradientUnits="userSpaceOnUse">
<stop stop-color="white"/>
<stop offset="0.635367" stop-color="white" stop-opacity="0"/>
</linearGradient>
<linearGradient id="paint3_linear_1_813" x1="168" y1="256" x2="22" y2="256" gradientUnits="userSpaceOnUse">
<stop stop-color="white"/>
<stop offset="0.589761" stop-color="white" stop-opacity="0"/>
</linearGradient>
<linearGradient id="paint4_linear_1_813" x1="313" y1="73" x2="249" y2="73" gradientUnits="userSpaceOnUse">
<stop stop-color="white"/>
<stop offset="0.621142" stop-color="white" stop-opacity="0"/>
</linearGradient>
<linearGradient id="paint5_linear_1_813" x1="333" y1="73" x2="229" y2="73" gradientUnits="userSpaceOnUse">
<stop stop-color="white"/>
<stop offset="0.635367" stop-color="white" stop-opacity="0"/>
</linearGradient>
<linearGradient id="paint6_linear_1_813" x1="354" y1="73" x2="208" y2="73" gradientUnits="userSpaceOnUse">
<stop stop-color="white"/>
<stop offset="0.589761" stop-color="white" stop-opacity="0"/>
</linearGradient>
<linearGradient id="paint7_linear_1_813" x1="313" y1="439" x2="249" y2="439" gradientUnits="userSpaceOnUse">
<stop stop-color="white"/>
<stop offset="0.621142" stop-color="white" stop-opacity="0"/>
</linearGradient>
<linearGradient id="paint8_linear_1_813" x1="333" y1="439" x2="229" y2="439" gradientUnits="userSpaceOnUse">
<stop stop-color="white"/>
<stop offset="0.635367" stop-color="white" stop-opacity="0"/>
</linearGradient>
<linearGradient id="paint9_linear_1_813" x1="354" y1="439" x2="208" y2="439" gradientUnits="userSpaceOnUse">
<stop stop-color="white"/>
<stop offset="0.589761" stop-color="white" stop-opacity="0"/>
</linearGradient>
<linearGradient id="paint10_linear_1_813" x1="64" y1="32" x2="0" y2="32" gradientUnits="userSpaceOnUse">
<stop stop-color="white"/>
<stop offset="0.621142" stop-color="white" stop-opacity="0"/>
</linearGradient>
<linearGradient id="paint11_linear_1_813" x1="104" y1="52" x2="0" y2="52" gradientUnits="userSpaceOnUse">
<stop stop-color="white"/>
<stop offset="0.635367" stop-color="white" stop-opacity="0"/>
</linearGradient>
<linearGradient id="paint12_linear_1_813" x1="146" y1="73" x2="0" y2="73" gradientUnits="userSpaceOnUse">
<stop stop-color="white"/>
<stop offset="0.589761" stop-color="white" stop-opacity="0"/>
</linearGradient>
</defs>
</svg>
